<svg fill="none" height="49" width="122" xmlns="http://www.w3.org/2000/svg" xmlns:xlink="http://www.w3.org/1999/xlink"><linearGradient id="a"><stop offset="0" stop-color="#0db14b"/><stop offset="1" stop-color="#0e9fc4"/></linearGradient><linearGradient id="b" gradientUnits="userSpaceOnUse" x1="101.523" x2="109.908" xlink:href="#a" y1="10.823" y2="9.799"/><linearGradient id="c" gradientUnits="userSpaceOnUse" x1="107.772" x2="112.493" y1="8.616" y2="13.413"><stop offset="0" stop-color="#d83e38"/><stop offset="1" stop-color="#fff200"/></linearGradient><linearGradient id="d" gradientUnits="userSpaceOnUse" x1="114.604" x2="111.299" xlink:href="#a" y1="18.376" y2="10.601"/><clipPath id="e"><path d="m0 0h122v49h-122z"/></clipPath><g clip-path="url(#e)"><path d="m96.964 25.219v-.152c.28 0 .697-.606 1.224-1.364 1.27-1.823 3.383-4.852 7.152-4.852l.196.003-.004.16a3.923 3.923 0 0 0 -.19-.005c-3.687.002-5.77 2.987-7.02 4.785-.598.857-.994 1.424-1.358 1.424z" fill="#84c98e"/><path d="m96.766 25.286v-.16c.395 0 1.022-.689 1.817-1.561 1.512-1.66 3.796-4.169 6.992-4.707l.027.156c-3.139.532-5.402 3.015-6.9 4.658-.85.937-1.47 1.613-1.936 1.613z" fill="#00ab53"/><path d="m17.605 13.304c.182.935.589 2.364 1.22 4.283l8.963 26.02a16.373 16.373 0 0 0 1.793 4.037h-6.174c-.084-.755-.199-1.33-.349-1.724l-3.411-9.87h-11.829l-3.884 10.93c-.037.13-.066.261-.087.394a1.37 1.37 0 0 1 -.062.27h-3.785l11.579-30.057a6.756 6.756 0 0 1 .772-1.685c.316-.484.63-.858.946-1.12a4.65 4.65 0 0 1 1.121-.678c.353-.161.72-.29 1.096-.382.298-.065.672-.14 1.12-.222.448-.081.772-.146.971-.196zm1.171 20.334-4.956-14.376-5.155 14.376z" fill="#eb2d2e"/><path d="m41.284 44.912-1.172 4.087-1.817-.444c-1.03-.18-1.827-.64-2.391-1.38-.564-.736-.946-1.492-1.145-2.263l-4.583-14.203a15.975 15.975 0 0 0 -1.158-2.794c-.439-.812-.842-1.428-1.208-1.846a7.006 7.006 0 0 0 -1.121-1.047c-.381-.279-.655-.456-.822-.529a1.69 1.69 0 0 0 -.423-.135l-.074-.912c.416-.31 1.058-.599 1.93-.86.871-.264 1.639-.394 2.304-.394 1.128 0 1.934.246 2.416.738.48.493.887 1.354 1.22 2.584.231 1.363 1.843 6.203 4.83 14.524.498 1.344.963 2.438 1.395 3.274l1.171-3.372 3.858-10.486c.466-1.248.74-2.077.823-2.486-.947-1.428-1.968-2.299-3.063-2.61l-.051-.912c.416-.31 1.06-.599 1.931-.86.871-.264 1.64-.394 2.303-.394 1.129 0 1.935.246 2.416.738.48.493.889 1.354 1.22 2.584.232 1.363 1.843 6.203 4.832 14.524.498 1.344.962 2.438 1.395 3.274l.349-1.28c.232-.853.456-1.55.673-2.092l4.009-10.486a8.89 8.89 0 0 0 .675-3.398c0-.853-.274-1.42-.824-1.698v-.912c.399-.345.952-.64 1.657-.885a6.16 6.16 0 0 1 2.029-.369c2.094 0 2.241 1.995.448 5.98l-7.198 16.741-1.171 4.087-1.842-.444a3.832 3.832 0 0 1 -1.881-.91c-.539-.477-.921-.94-1.145-1.39a5.977 5.977 0 0 1 -.485-1.342l-4.484-13.862zm46.879-11.422c-.713.393-1.701.59-2.965.59l-12.273-.146c.032.509.049 1.18.049 2.018 0 2.658.693 4.742 2.078 6.253 1.387 1.508 3.191 2.263 5.418 2.263 1.477 0 2.947-.397 4.406-1.194a9.71 9.71 0 0 0 3.535-3.235l.1.419c.068.262.1.524.1.788 0 1.246-.488 2.424-1.469 3.53-.979 1.109-2.232 1.975-3.76 2.599a12.34 12.34 0 0 1 -4.707.934c-1.111 0-2.164-.145-3.161-.431a9.505 9.505 0 0 1 -5.104-3.68c-.648-.92-1.168-2.056-1.557-3.409-.391-1.354-.604-2.853-.636-4.493 0-2.692.437-5.112 1.307-7.262.872-2.15 2.126-3.845 3.761-5.084 1.636-1.238 3.516-1.858 5.643-1.858 1.209 0 2.305.151 3.287.456.979.303 1.783.68 2.412 1.133a6.91 6.91 0 0 1 1.645 1.672c.465.665.814 1.298 1.045 1.896.232.6.42 1.259.563 1.982.141.722.225 1.296.248 1.723.025.426.037.878.037 1.354v1.182zm-9.936-8.592c-.813 0-1.527.173-2.141.517-.615.345-1.125.861-1.533 1.551-.406.69-.741 1.411-1.008 2.166-.266.755-.521 1.682-.771 2.781l10.906-.197c0-1.805-.473-3.393-1.418-4.762-.947-1.37-2.291-2.056-4.035-2.056zm15.295 20.063c-.365-.803-.555-2.137-.572-4s.008-4.46.074-7.792l-.1-16.886c0-1.395-.213-2.474-.635-3.236-.422-.763-1.184-1.518-1.77-1.594l-.01-.61.498-.32c.33-.196.846-.402 1.543-.616a7.302 7.302 0 0 1 2.143-.32c1.26 0 2.121.357 2.576 1.07.457.714.668 1.884.637 3.508-.018.721-.072 1.932-.164 3.63-.09 1.699-.152 3.263-.186 4.69-.035 1.05-.133 1.887-.299 2.511 2.207-1.937 4.564-2.904 7.07-2.904 1.246 0 2.426.241 3.537.725 1.113.484 2.121 1.207 3.023 2.166.906.96 1.629 2.248 2.168 3.864.539 1.618.811 3.46.811 5.527 0 1.38-.16 2.733-.475 4.061a14.483 14.483 0 0 1 -1.482 3.792 13.254 13.254 0 0 1 -2.414 3.138c-.938.894-2.072 1.608-3.398 2.142-1.328.533-2.766.8-4.309.8-1.908 0-3.648-.3-5.217-.898s-2.584-1.414-3.049-2.448zm8.117-19.546c-1.527 0-2.904.42-4.135 1.256v.1c0 6.087.068 10.542.201 13.366.1 2.1.465 3.564 1.096 4.393.631.83 1.809 1.243 3.535 1.243.914 0 1.74-.168 2.479-.505a4.996 4.996 0 0 0 1.83-1.379c.486-.589.9-1.233 1.234-1.92.338-.697.598-1.46.771-2.288.173-.829.299-1.596.373-2.302.074-.705.111-1.42.111-2.14 0-3.036-.697-5.434-2.092-7.19-1.393-1.755-3.194-2.634-5.403-2.634z" fill="#007cc3"/><g fill-opacity=".35"><path d="m101.523 9.5c0-3.522 1.399-6.899 3.889-9.39l.111-.11.111.11a13.279 13.279 0 0 1 0 18.78l-.111.11-.111-.11a13.279 13.279 0 0 1 -3.889-9.39z" fill="url(#b)"/><path d="m106.811 8.777a13.278 13.278 0 0 1 8.063-6.186l.152-.04.04.15a13.28 13.28 0 0 1 -9.389 16.263l-.151.04-.041-.151a13.28 13.28 0 0 1 1.326-10.076z" fill="url(#c)"/><path d="m115.75 17.714a13.28 13.28 0 0 0 6.187-8.062l.04-.152-.151-.04a13.279 13.279 0 0 0 -16.263 9.389l-.04.151.151.04c3.402.912 7.026.435 10.076-1.326z" fill="url(#d)"/></g></g></svg>